<svg viewBox="0 0 900 340" xmlns="http://www.w3.org/2000/svg" font-family="Inter, -apple-system, sans-serif">
  <defs>
    <marker id="a5" markerWidth="10" markerHeight="10" refX="8" refY="3" orient="auto">
      <path d="M0,0 L8,3 L0,6 Z" fill="#7e57c2"/>
    </marker>
  </defs>

  <text x="450" y="32" text-anchor="middle" font-size="21" font-weight="700" fill="#4527a0">Idempotentsus — sama playbook, sama tulemus</text>
  <text x="450" y="54" text-anchor="middle" font-size="12" fill="#666">ansible-playbook nginx.yml — käivitatud kolm korda järjest</text>

  <!-- RUN 1 -->
  <g>
    <text x="150" y="98" text-anchor="middle" font-size="13" font-weight="700" fill="#5e35b1">1. käivitus</text>
    <rect x="70" y="112" width="160" height="60" rx="10" fill="#fafafa" stroke="#bdbdbd"/>
    <text x="150" y="138" text-anchor="middle" font-size="12" fill="#9e9e9e">server: tühi</text>
    <text x="150" y="158" text-anchor="middle" font-size="11" fill="#bdbdbd">nginx puudub</text>
    <line x1="150" y1="176" x2="150" y2="204" stroke="#7e57c2" stroke-width="2.5" marker-end="url(#a5)"/>
    <rect x="70" y="210" width="160" height="60" rx="10" fill="#ede7f6" stroke="#7e57c2"/>
    <text x="150" y="236" text-anchor="middle" font-size="12" fill="#311b92" font-weight="600">nginx ✓ töötab</text>
    <text x="150" y="256" text-anchor="middle" font-size="11" fill="#5e35b1">Ansible seadistas</text>
    <rect x="88" y="286" width="124" height="30" rx="15" fill="#fff3e0" stroke="#ffa726"/>
    <text x="150" y="306" text-anchor="middle" font-size="13" font-weight="700" fill="#e65100">changed=1</text>
  </g>

  <!-- RUN 2 -->
  <g>
    <text x="450" y="98" text-anchor="middle" font-size="13" font-weight="700" fill="#5e35b1">2. käivitus</text>
    <rect x="370" y="112" width="160" height="60" rx="10" fill="#ede7f6" stroke="#b39ddb"/>
    <text x="450" y="138" text-anchor="middle" font-size="12" fill="#311b92" font-weight="600">nginx ✓ töötab</text>
    <text x="450" y="158" text-anchor="middle" font-size="11" fill="#7e57c2">juba paigas</text>
    <line x1="450" y1="176" x2="450" y2="204" stroke="#7e57c2" stroke-width="2.5" marker-end="url(#a5)"/>
    <rect x="370" y="210" width="160" height="60" rx="10" fill="#ede7f6" stroke="#7e57c2"/>
    <text x="450" y="236" text-anchor="middle" font-size="12" fill="#311b92" font-weight="600">nginx ✓ töötab</text>
    <text x="450" y="256" text-anchor="middle" font-size="11" fill="#5e35b1">ei puudutatud</text>
    <rect x="388" y="286" width="124" height="30" rx="15" fill="#e8f5e9" stroke="#66bb6a"/>
    <text x="450" y="306" text-anchor="middle" font-size="13" font-weight="700" fill="#2e7d32">changed=0</text>
  </g>

  <!-- RUN 3 -->
  <g>
    <text x="750" y="98" text-anchor="middle" font-size="13" font-weight="700" fill="#5e35b1">3. käivitus</text>
    <rect x="670" y="112" width="160" height="60" rx="10" fill="#ede7f6" stroke="#b39ddb"/>
    <text x="750" y="138" text-anchor="middle" font-size="12" fill="#311b92" font-weight="600">nginx ✓ töötab</text>
    <text x="750" y="158" text-anchor="middle" font-size="11" fill="#7e57c2">juba paigas</text>
    <line x1="750" y1="176" x2="750" y2="204" stroke="#7e57c2" stroke-width="2.5" marker-end="url(#a5)"/>
    <rect x="670" y="210" width="160" height="60" rx="10" fill="#ede7f6" stroke="#7e57c2"/>
    <text x="750" y="236" text-anchor="middle" font-size="12" fill="#311b92" font-weight="600">nginx ✓ töötab</text>
    <text x="750" y="256" text-anchor="middle" font-size="11" fill="#5e35b1">ei puudutatud</text>
    <rect x="688" y="286" width="124" height="30" rx="15" fill="#e8f5e9" stroke="#66bb6a"/>
    <text x="750" y="306" text-anchor="middle" font-size="13" font-weight="700" fill="#2e7d32">changed=0</text>
  </g>
</svg>
